<svg xmlns="http://www.w3.org/2000/svg" xmlns:xlink="http://www.w3.org/1999/xlink" width="226.875" height="18.25" viewBox="0 0 226.875 18.25">
  <defs>
    <linearGradient id="linear-gradient" x2="0.95" y2="1" gradientUnits="objectBoundingBox">
      <stop offset="0" stop-color="#3b48e2"/>
      <stop offset="1" stop-color="#6542d8"/>
    </linearGradient>
  </defs>
  <g id="그룹_2" data-name="그룹 2" transform="translate(-900.425 -86.125)">
    <path id="패스_1" data-name="패스 1" d="M-59.525-17.5H-56.6V0h-2.925V-7.525H-68.65V0h-2.925V-17.5h2.925v7.25h9.125ZM-41.825.375A9.577,9.577,0,0,1-46.55-.762a7.91,7.91,0,0,1-3.175-3.212A9.86,9.86,0,0,1-50.85-8.75a9.86,9.86,0,0,1,1.125-4.775,7.91,7.91,0,0,1,3.175-3.212,9.577,9.577,0,0,1,4.725-1.138,9.524,9.524,0,0,1,4.7,1.138,7.91,7.91,0,0,1,3.175,3.212A9.86,9.86,0,0,1-32.825-8.75,9.86,9.86,0,0,1-33.95-3.975,7.91,7.91,0,0,1-37.125-.762,9.524,9.524,0,0,1-41.825.375Zm0-2.7a6.074,6.074,0,0,0,3.15-.812A5.6,5.6,0,0,0-36.538-5.4a7.093,7.093,0,0,0,.763-3.35,7.093,7.093,0,0,0-.763-3.35,5.6,5.6,0,0,0-2.137-2.262,6.074,6.074,0,0,0-3.15-.812A6.123,6.123,0,0,0-45-14.363,5.6,5.6,0,0,0-47.138-12.1,7.093,7.093,0,0,0-47.9-8.75a7.093,7.093,0,0,0,.763,3.35A5.6,5.6,0,0,0-45-3.137,6.123,6.123,0,0,0-41.825-2.325ZM-19.1.375A9.577,9.577,0,0,1-23.825-.762,7.91,7.91,0,0,1-27-3.975,9.86,9.86,0,0,1-28.125-8.75,9.86,9.86,0,0,1-27-13.525a7.91,7.91,0,0,1,3.175-3.212A9.577,9.577,0,0,1-19.1-17.875a9.524,9.524,0,0,1,4.7,1.138,7.91,7.91,0,0,1,3.175,3.212A9.86,9.86,0,0,1-10.1-8.75a9.86,9.86,0,0,1-1.125,4.775A7.91,7.91,0,0,1-14.4-.762,9.524,9.524,0,0,1-19.1.375Zm0-2.7a6.074,6.074,0,0,0,3.15-.812A5.6,5.6,0,0,0-13.813-5.4a7.093,7.093,0,0,0,.763-3.35,7.093,7.093,0,0,0-.763-3.35,5.6,5.6,0,0,0-2.137-2.262,6.074,6.074,0,0,0-3.15-.812,6.123,6.123,0,0,0-3.175.813A5.6,5.6,0,0,0-24.413-12.1a7.093,7.093,0,0,0-.763,3.35,7.093,7.093,0,0,0,.763,3.35,5.6,5.6,0,0,0,2.138,2.263A6.123,6.123,0,0,0-19.1-2.325ZM7.725-17.5H10.65V0H8L-1.45-12.5l.025,5.575V0H-4.35V-17.5H-1.7L7.75-5l-.025-5.225Zm16.425,0a9.549,9.549,0,0,1,4.613,1.087,7.629,7.629,0,0,1,3.112,3.075,9.317,9.317,0,0,1,1.1,4.588,9.317,9.317,0,0,1-1.1,4.588,7.629,7.629,0,0,1-3.112,3.075A9.549,9.549,0,0,1,24.15,0h-6.7V-17.5Zm0,14.8a6.074,6.074,0,0,0,3.063-.763A5.284,5.284,0,0,0,29.287-5.6a6.56,6.56,0,0,0,.737-3.15,6.56,6.56,0,0,0-.737-3.15,5.284,5.284,0,0,0-2.075-2.137A6.074,6.074,0,0,0,24.15-14.8H20.375V-2.7Zm17.475.025H51.75V0H38.725V-17.5H51.6v2.65H41.625v4.675h9.55v2.6h-9.55ZM70.325-17.5h3.15L66.25,0H63.1L55.85-17.5H59l2.95,7.275L64.65-3.4Z" transform="translate(972 104)" fill="#42474b"/>
    <path id="패스_2" data-name="패스 2" d="M14.025-9.05a3.947,3.947,0,0,1,1.988,1.612A4.588,4.588,0,0,1,16.8-4.85a4.264,4.264,0,0,1-1.637,3.588A7.5,7.5,0,0,1,10.5,0H2.15V-17.5H10.5a6.584,6.584,0,0,1,4.213,1.225,4.1,4.1,0,0,1,1.537,3.4,4.455,4.455,0,0,1-.587,2.3A3.86,3.86,0,0,1,14.025-9.05ZM5.05-14.9v4.625H10.6a3.141,3.141,0,0,0,2.038-.6,2.067,2.067,0,0,0,.738-1.7,2.112,2.112,0,0,0-.738-1.7A3.054,3.054,0,0,0,10.6-14.9ZM10.825-2.65a3.408,3.408,0,0,0,2.25-.687A2.325,2.325,0,0,0,13.9-5.225a2.276,2.276,0,0,0-.812-1.85A3.4,3.4,0,0,0,10.85-7.75H5.05v5.1ZM22.6-17.5h2.925V-2.725H34.75V0H22.6ZM47.425.375A9.577,9.577,0,0,1,42.7-.762a7.91,7.91,0,0,1-3.175-3.212A9.86,9.86,0,0,1,38.4-8.75a9.86,9.86,0,0,1,1.125-4.775A7.91,7.91,0,0,1,42.7-16.737a9.577,9.577,0,0,1,4.725-1.138,9.524,9.524,0,0,1,4.7,1.138A7.91,7.91,0,0,1,55.3-13.525,9.86,9.86,0,0,1,56.425-8.75,9.86,9.86,0,0,1,55.3-3.975,7.91,7.91,0,0,1,52.125-.762,9.524,9.524,0,0,1,47.425.375Zm0-2.7a6.074,6.074,0,0,0,3.15-.812A5.6,5.6,0,0,0,52.713-5.4a7.093,7.093,0,0,0,.762-3.35,7.093,7.093,0,0,0-.762-3.35,5.6,5.6,0,0,0-2.138-2.262,6.074,6.074,0,0,0-3.15-.812,6.123,6.123,0,0,0-3.175.813A5.6,5.6,0,0,0,42.112-12.1a7.093,7.093,0,0,0-.763,3.35,7.093,7.093,0,0,0,.763,3.35A5.6,5.6,0,0,0,44.25-3.137,6.123,6.123,0,0,0,47.425-2.325ZM77.3-9.95v7.425A9.631,9.631,0,0,1,74.088-.362,10.35,10.35,0,0,1,70.175.35a9.715,9.715,0,0,1-4.75-1.125A7.849,7.849,0,0,1,62.25-3.963,9.841,9.841,0,0,1,61.125-8.75,9.351,9.351,0,0,1,62.3-13.463a8.348,8.348,0,0,1,3.275-3.225,9.745,9.745,0,0,1,4.8-1.163,9.165,9.165,0,0,1,3.537.688,8.864,8.864,0,0,1,2.963,2.012L75-13.275a6.239,6.239,0,0,0-2.125-1.375,6.749,6.749,0,0,0-2.525-.5,6.575,6.575,0,0,0-3.275.8A5.667,5.667,0,0,0,64.85-12.1a6.822,6.822,0,0,0-.8,3.35,7.247,7.247,0,0,0,.75,3.375,5.327,5.327,0,0,0,2.137,2.238,6.447,6.447,0,0,0,3.238.787A6.972,6.972,0,0,0,74.6-3.775v-3.6H69.7V-9.95Z" transform="translate(1050 104)" fill="url(#linear-gradient)"/>
  </g>
</svg>
