<svg xmlns="http://www.w3.org/2000/svg" width="145.05" height="18.25" viewBox="0 0 145.05 18.25">
  <path id="패스_1" data-name="패스 1" d="M-59.525-17.5H-56.6V0h-2.925V-7.525H-68.65V0h-2.925V-17.5h2.925v7.25h9.125ZM-41.825.375A9.577,9.577,0,0,1-46.55-.762a7.91,7.91,0,0,1-3.175-3.212A9.86,9.86,0,0,1-50.85-8.75a9.86,9.86,0,0,1,1.125-4.775,7.91,7.91,0,0,1,3.175-3.212,9.577,9.577,0,0,1,4.725-1.138,9.524,9.524,0,0,1,4.7,1.138,7.91,7.91,0,0,1,3.175,3.212A9.86,9.86,0,0,1-32.825-8.75,9.86,9.86,0,0,1-33.95-3.975,7.91,7.91,0,0,1-37.125-.762,9.524,9.524,0,0,1-41.825.375Zm0-2.7a6.074,6.074,0,0,0,3.15-.812A5.6,5.6,0,0,0-36.538-5.4a7.093,7.093,0,0,0,.763-3.35,7.093,7.093,0,0,0-.763-3.35,5.6,5.6,0,0,0-2.137-2.262,6.074,6.074,0,0,0-3.15-.812A6.123,6.123,0,0,0-45-14.363,5.6,5.6,0,0,0-47.138-12.1,7.093,7.093,0,0,0-47.9-8.75a7.093,7.093,0,0,0,.763,3.35A5.6,5.6,0,0,0-45-3.137,6.123,6.123,0,0,0-41.825-2.325ZM-19.1.375A9.577,9.577,0,0,1-23.825-.762,7.91,7.91,0,0,1-27-3.975,9.86,9.86,0,0,1-28.125-8.75,9.86,9.86,0,0,1-27-13.525a7.91,7.91,0,0,1,3.175-3.212A9.577,9.577,0,0,1-19.1-17.875a9.524,9.524,0,0,1,4.7,1.138,7.91,7.91,0,0,1,3.175,3.212A9.86,9.86,0,0,1-10.1-8.75a9.86,9.86,0,0,1-1.125,4.775A7.91,7.91,0,0,1-14.4-.762,9.524,9.524,0,0,1-19.1.375Zm0-2.7a6.074,6.074,0,0,0,3.15-.812A5.6,5.6,0,0,0-13.813-5.4a7.093,7.093,0,0,0,.763-3.35,7.093,7.093,0,0,0-.763-3.35,5.6,5.6,0,0,0-2.137-2.262,6.074,6.074,0,0,0-3.15-.812,6.123,6.123,0,0,0-3.175.813A5.6,5.6,0,0,0-24.413-12.1a7.093,7.093,0,0,0-.763,3.35,7.093,7.093,0,0,0,.763,3.35,5.6,5.6,0,0,0,2.138,2.263A6.123,6.123,0,0,0-19.1-2.325ZM7.725-17.5H10.65V0H8L-1.45-12.5l.025,5.575V0H-4.35V-17.5H-1.7L7.75-5l-.025-5.225Zm16.425,0a9.549,9.549,0,0,1,4.613,1.087,7.629,7.629,0,0,1,3.112,3.075,9.317,9.317,0,0,1,1.1,4.588,9.317,9.317,0,0,1-1.1,4.588,7.629,7.629,0,0,1-3.112,3.075A9.549,9.549,0,0,1,24.15,0h-6.7V-17.5Zm0,14.8a6.074,6.074,0,0,0,3.063-.763A5.284,5.284,0,0,0,29.287-5.6a6.56,6.56,0,0,0,.737-3.15,6.56,6.56,0,0,0-.737-3.15,5.284,5.284,0,0,0-2.075-2.137A6.074,6.074,0,0,0,24.15-14.8H20.375V-2.7Zm17.475.025H51.75V0H38.725V-17.5H51.6v2.65H41.625v4.675h9.55v2.6h-9.55ZM70.325-17.5h3.15L66.25,0H63.1L55.85-17.5H59l2.95,7.275L64.65-3.4Z" transform="translate(71.575 17.875)" fill="#42474b"/>
</svg>
